<svg id="Layer_1" data-name="Layer 1" xmlns="http://www.w3.org/2000/svg" xmlns:xlink="http://www.w3.org/1999/xlink" viewBox="0 0 283.46 283.46"><defs><linearGradient id="New_Gradient_Swatch_1" x1="79.26" y1="186.72" x2="199.02" y2="66.96" gradientUnits="userSpaceOnUse"><stop offset="0" stop-color="#009963"/><stop offset="0.98" stop-color="#006b99"/></linearGradient></defs><rect width="283.46" height="283.46" rx="51.52" fill="#edf3f7"/><g id="SvgjsG6575"><path d="M141.74,40.85a75.44,75.44,0,0,1,75.36,75.36v51a75.44,75.44,0,0,1-75.37,75.37A15.84,15.84,0,0,1,130.54,238L71,178.44a15.83,15.83,0,0,1,22.38-22.38l54.48,54.48a43.78,43.78,0,0,0,37.59-43.29v-51A43.76,43.76,0,0,0,141.73,72.5H98v28.65l54.91,54.91a15.83,15.83,0,0,1-22.38,22.38L71,118.9a15.82,15.82,0,0,1-4.64-11.19v-51A15.83,15.83,0,0,1,82.15,40.84h59.59Z" fill="url(#New_Gradient_Swatch_1)"/></g></svg>